<svg width="180" height="180" viewBox="0 0 180 180" fill="none" xmlns="http://www.w3.org/2000/svg">
  <rect width="180" height="180" rx="40" fill="#047857"/>
  <path d="M90 23C65.7 23 46 42.7 46 67C46 100 90 157 90 157C90 157 134 100 134 67C134 42.7 114.3 23 90 23Z" fill="#0EA5E9"/>
  <circle cx="90" cy="67" r="31" fill="white"/>
  <path d="M83 45H97V60H112V74H97V89H83V74H68V60H83V45Z" fill="#047857"/>
  <path d="M42 136C54 126 69 121 90 121C111 121 126 126 138 136" stroke="white" stroke-width="10" stroke-linecap="round"/>
  <text x="90" y="169" text-anchor="middle" font-family="Inter, Arial, sans-serif" font-size="20" font-weight="900" fill="white">DOKITO</text>
</svg>
